<?xml version="1.0" encoding="UTF-8"?> <svg xmlns="http://www.w3.org/2000/svg" viewBox="0 0 22.24 32"><defs><style>.cls-1{fill:#5aafdb;}.cls-2{fill:#282858;}</style></defs><g id="Warstwa_2" data-name="Warstwa 2"><g id="Warstwa_1-2" data-name="Warstwa 1"><path class="cls-1" d="M7.89,18.94a3.48,3.48,0,0,0-.54,1.11,3.54,3.54,0,0,0,2.44,4.39,3.44,3.44,0,0,0,1.56.09c.36-.06.36-.27,0-.45a5.9,5.9,0,0,1-3.06-5C8.32,18.73,8.11,18.64,7.89,18.94Z"></path><path class="cls-1" d="M5.25,20.08c.51-2.22,2.7-6.36,5.86-11.16,1,1.53,1.92,3,2.7,4.35l4-3.21c-1.95-3.31-4-6.19-4.68-7.18L11.11,0,9,2.88C7.53,5,0,15.64,0,20.92a10.93,10.93,0,0,0,.42,3Z"></path><path class="cls-2" d="M14.56,14.53c1.62,2.91,2.55,5.22,2.55,6.39a6,6,0,0,1-11.86,1L1,25.34a11.1,11.1,0,0,0,21.28-4.45c0-2.49-1.68-6.18-3.6-9.6Z"></path></g></g></svg> 